<mxfile host="app.diagrams.net" modified="2022-04-09T11:50:57.451Z" agent="5.0 (Windows NT 10.0; Win64; x64) AppleWebKit/537.36 (KHTML, like Gecko) Chrome/100.0.4896.75 Safari/537.36" etag="TmyIYmNGzjxvIgluHRCy" version="17.4.2" type="github">
  <diagram id="5ivljqsj1AsLhp-okKk9" name="Page-1">
    <mxGraphModel dx="905" dy="1194" grid="1" gridSize="10" guides="1" tooltips="1" connect="1" arrows="1" fold="1" page="1" pageScale="1" pageWidth="827" pageHeight="1169" math="0" shadow="0">
      <root>
        <mxCell id="0" />
        <mxCell id="1" parent="0" />
        <mxCell id="CIrGzN-7pVDjRdNqsoNU-16" style="edgeStyle=orthogonalEdgeStyle;rounded=0;orthogonalLoop=1;jettySize=auto;html=1;exitX=1;exitY=0.75;exitDx=0;exitDy=0;entryX=0;entryY=0.5;entryDx=0;entryDy=0;" edge="1" parent="1" source="CIrGzN-7pVDjRdNqsoNU-1" target="CIrGzN-7pVDjRdNqsoNU-8">
          <mxGeometry relative="1" as="geometry" />
        </mxCell>
        <mxCell id="CIrGzN-7pVDjRdNqsoNU-1" value="" style="shape=actor;whiteSpace=wrap;html=1;" vertex="1" parent="1">
          <mxGeometry x="100" y="150" width="40" height="60" as="geometry" />
        </mxCell>
        <mxCell id="CIrGzN-7pVDjRdNqsoNU-2" value="&lt;b&gt;Business&lt;/b&gt;" style="text;html=1;align=center;verticalAlign=middle;resizable=0;points=[];autosize=1;strokeColor=none;fillColor=none;" vertex="1" parent="1">
          <mxGeometry x="85" y="210" width="70" height="20" as="geometry" />
        </mxCell>
        <mxCell id="CIrGzN-7pVDjRdNqsoNU-3" value="Logical/Physical Table" style="shape=table;startSize=30;container=1;collapsible=0;childLayout=tableLayout;fontStyle=1;align=center;" vertex="1" parent="1">
          <mxGeometry x="270" y="140" width="130" height="80" as="geometry" />
        </mxCell>
        <mxCell id="CIrGzN-7pVDjRdNqsoNU-4" value="" style="shape=tableRow;horizontal=0;startSize=0;swimlaneHead=0;swimlaneBody=0;top=0;left=0;bottom=0;right=0;collapsible=0;dropTarget=0;fillColor=none;points=[[0,0.5],[1,0.5]];portConstraint=eastwest;" vertex="1" parent="CIrGzN-7pVDjRdNqsoNU-3">
          <mxGeometry y="30" width="130" height="17" as="geometry" />
        </mxCell>
        <mxCell id="CIrGzN-7pVDjRdNqsoNU-5" value="" style="shape=partialRectangle;html=1;whiteSpace=wrap;connectable=0;fillColor=none;top=0;left=0;bottom=0;right=0;overflow=hidden;" vertex="1" parent="CIrGzN-7pVDjRdNqsoNU-4">
          <mxGeometry width="43" height="17" as="geometry">
            <mxRectangle width="43" height="17" as="alternateBounds" />
          </mxGeometry>
        </mxCell>
        <mxCell id="CIrGzN-7pVDjRdNqsoNU-6" value="" style="shape=partialRectangle;html=1;whiteSpace=wrap;connectable=0;fillColor=none;top=0;left=0;bottom=0;right=0;overflow=hidden;" vertex="1" parent="CIrGzN-7pVDjRdNqsoNU-4">
          <mxGeometry x="43" width="44" height="17" as="geometry">
            <mxRectangle width="44" height="17" as="alternateBounds" />
          </mxGeometry>
        </mxCell>
        <mxCell id="CIrGzN-7pVDjRdNqsoNU-7" value="" style="shape=partialRectangle;html=1;whiteSpace=wrap;connectable=0;fillColor=none;top=0;left=0;bottom=0;right=0;overflow=hidden;" vertex="1" parent="CIrGzN-7pVDjRdNqsoNU-4">
          <mxGeometry x="87" width="43" height="17" as="geometry">
            <mxRectangle width="43" height="17" as="alternateBounds" />
          </mxGeometry>
        </mxCell>
        <mxCell id="CIrGzN-7pVDjRdNqsoNU-8" value="" style="shape=tableRow;horizontal=0;startSize=0;swimlaneHead=0;swimlaneBody=0;top=0;left=0;bottom=0;right=0;collapsible=0;dropTarget=0;fillColor=none;points=[[0,0.5],[1,0.5]];portConstraint=eastwest;" vertex="1" parent="CIrGzN-7pVDjRdNqsoNU-3">
          <mxGeometry y="47" width="130" height="16" as="geometry" />
        </mxCell>
        <mxCell id="CIrGzN-7pVDjRdNqsoNU-9" value="" style="shape=partialRectangle;html=1;whiteSpace=wrap;connectable=0;fillColor=none;top=0;left=0;bottom=0;right=0;overflow=hidden;" vertex="1" parent="CIrGzN-7pVDjRdNqsoNU-8">
          <mxGeometry width="43" height="16" as="geometry">
            <mxRectangle width="43" height="16" as="alternateBounds" />
          </mxGeometry>
        </mxCell>
        <mxCell id="CIrGzN-7pVDjRdNqsoNU-10" value="" style="shape=partialRectangle;html=1;whiteSpace=wrap;connectable=0;fillColor=none;top=0;left=0;bottom=0;right=0;overflow=hidden;" vertex="1" parent="CIrGzN-7pVDjRdNqsoNU-8">
          <mxGeometry x="43" width="44" height="16" as="geometry">
            <mxRectangle width="44" height="16" as="alternateBounds" />
          </mxGeometry>
        </mxCell>
        <mxCell id="CIrGzN-7pVDjRdNqsoNU-11" value="" style="shape=partialRectangle;html=1;whiteSpace=wrap;connectable=0;fillColor=none;top=0;left=0;bottom=0;right=0;overflow=hidden;" vertex="1" parent="CIrGzN-7pVDjRdNqsoNU-8">
          <mxGeometry x="87" width="43" height="16" as="geometry">
            <mxRectangle width="43" height="16" as="alternateBounds" />
          </mxGeometry>
        </mxCell>
        <mxCell id="CIrGzN-7pVDjRdNqsoNU-12" value="" style="shape=tableRow;horizontal=0;startSize=0;swimlaneHead=0;swimlaneBody=0;top=0;left=0;bottom=0;right=0;collapsible=0;dropTarget=0;fillColor=none;points=[[0,0.5],[1,0.5]];portConstraint=eastwest;" vertex="1" parent="CIrGzN-7pVDjRdNqsoNU-3">
          <mxGeometry y="63" width="130" height="17" as="geometry" />
        </mxCell>
        <mxCell id="CIrGzN-7pVDjRdNqsoNU-13" value="" style="shape=partialRectangle;html=1;whiteSpace=wrap;connectable=0;fillColor=none;top=0;left=0;bottom=0;right=0;overflow=hidden;" vertex="1" parent="CIrGzN-7pVDjRdNqsoNU-12">
          <mxGeometry width="43" height="17" as="geometry">
            <mxRectangle width="43" height="17" as="alternateBounds" />
          </mxGeometry>
        </mxCell>
        <mxCell id="CIrGzN-7pVDjRdNqsoNU-14" value="" style="shape=partialRectangle;html=1;whiteSpace=wrap;connectable=0;fillColor=none;top=0;left=0;bottom=0;right=0;overflow=hidden;" vertex="1" parent="CIrGzN-7pVDjRdNqsoNU-12">
          <mxGeometry x="43" width="44" height="17" as="geometry">
            <mxRectangle width="44" height="17" as="alternateBounds" />
          </mxGeometry>
        </mxCell>
        <mxCell id="CIrGzN-7pVDjRdNqsoNU-15" value="" style="shape=partialRectangle;html=1;whiteSpace=wrap;connectable=0;fillColor=none;top=0;left=0;bottom=0;right=0;overflow=hidden;" vertex="1" parent="CIrGzN-7pVDjRdNqsoNU-12">
          <mxGeometry x="87" width="43" height="17" as="geometry">
            <mxRectangle width="43" height="17" as="alternateBounds" />
          </mxGeometry>
        </mxCell>
        <mxCell id="CIrGzN-7pVDjRdNqsoNU-17" value="&lt;b&gt;Access&lt;/b&gt;" style="text;html=1;align=center;verticalAlign=middle;resizable=0;points=[];autosize=1;strokeColor=none;fillColor=none;" vertex="1" parent="1">
          <mxGeometry x="175" y="170" width="60" height="20" as="geometry" />
        </mxCell>
        <mxCell id="CIrGzN-7pVDjRdNqsoNU-18" value="&lt;b&gt;Stand Alone Database&lt;/b&gt;" style="text;html=1;align=center;verticalAlign=middle;resizable=0;points=[];autosize=1;strokeColor=none;fillColor=none;" vertex="1" parent="1">
          <mxGeometry x="140" y="240" width="140" height="20" as="geometry" />
        </mxCell>
        <mxCell id="CIrGzN-7pVDjRdNqsoNU-35" style="edgeStyle=orthogonalEdgeStyle;rounded=0;orthogonalLoop=1;jettySize=auto;html=1;exitX=1;exitY=0.75;exitDx=0;exitDy=0;" edge="1" parent="1" source="CIrGzN-7pVDjRdNqsoNU-20" target="CIrGzN-7pVDjRdNqsoNU-27">
          <mxGeometry relative="1" as="geometry" />
        </mxCell>
        <mxCell id="CIrGzN-7pVDjRdNqsoNU-20" value="" style="shape=actor;whiteSpace=wrap;html=1;" vertex="1" parent="1">
          <mxGeometry x="100" y="330" width="40" height="60" as="geometry" />
        </mxCell>
        <mxCell id="CIrGzN-7pVDjRdNqsoNU-21" value="&lt;b&gt;Business&lt;/b&gt;" style="text;html=1;align=center;verticalAlign=middle;resizable=0;points=[];autosize=1;strokeColor=none;fillColor=none;" vertex="1" parent="1">
          <mxGeometry x="85" y="390" width="70" height="20" as="geometry" />
        </mxCell>
        <mxCell id="CIrGzN-7pVDjRdNqsoNU-22" value="Logical Table" style="shape=table;startSize=30;container=1;collapsible=0;childLayout=tableLayout;fontStyle=1;align=center;" vertex="1" parent="1">
          <mxGeometry x="270" y="320" width="130" height="80" as="geometry" />
        </mxCell>
        <mxCell id="CIrGzN-7pVDjRdNqsoNU-23" value="" style="shape=tableRow;horizontal=0;startSize=0;swimlaneHead=0;swimlaneBody=0;top=0;left=0;bottom=0;right=0;collapsible=0;dropTarget=0;fillColor=none;points=[[0,0.5],[1,0.5]];portConstraint=eastwest;" vertex="1" parent="CIrGzN-7pVDjRdNqsoNU-22">
          <mxGeometry y="30" width="130" height="17" as="geometry" />
        </mxCell>
        <mxCell id="CIrGzN-7pVDjRdNqsoNU-24" value="" style="shape=partialRectangle;html=1;whiteSpace=wrap;connectable=0;fillColor=none;top=0;left=0;bottom=0;right=0;overflow=hidden;" vertex="1" parent="CIrGzN-7pVDjRdNqsoNU-23">
          <mxGeometry width="43" height="17" as="geometry">
            <mxRectangle width="43" height="17" as="alternateBounds" />
          </mxGeometry>
        </mxCell>
        <mxCell id="CIrGzN-7pVDjRdNqsoNU-25" value="" style="shape=partialRectangle;html=1;whiteSpace=wrap;connectable=0;fillColor=none;top=0;left=0;bottom=0;right=0;overflow=hidden;" vertex="1" parent="CIrGzN-7pVDjRdNqsoNU-23">
          <mxGeometry x="43" width="44" height="17" as="geometry">
            <mxRectangle width="44" height="17" as="alternateBounds" />
          </mxGeometry>
        </mxCell>
        <mxCell id="CIrGzN-7pVDjRdNqsoNU-26" value="" style="shape=partialRectangle;html=1;whiteSpace=wrap;connectable=0;fillColor=none;top=0;left=0;bottom=0;right=0;overflow=hidden;" vertex="1" parent="CIrGzN-7pVDjRdNqsoNU-23">
          <mxGeometry x="87" width="43" height="17" as="geometry">
            <mxRectangle width="43" height="17" as="alternateBounds" />
          </mxGeometry>
        </mxCell>
        <mxCell id="CIrGzN-7pVDjRdNqsoNU-27" value="" style="shape=tableRow;horizontal=0;startSize=0;swimlaneHead=0;swimlaneBody=0;top=0;left=0;bottom=0;right=0;collapsible=0;dropTarget=0;fillColor=none;points=[[0,0.5],[1,0.5]];portConstraint=eastwest;" vertex="1" parent="CIrGzN-7pVDjRdNqsoNU-22">
          <mxGeometry y="47" width="130" height="16" as="geometry" />
        </mxCell>
        <mxCell id="CIrGzN-7pVDjRdNqsoNU-28" value="" style="shape=partialRectangle;html=1;whiteSpace=wrap;connectable=0;fillColor=none;top=0;left=0;bottom=0;right=0;overflow=hidden;" vertex="1" parent="CIrGzN-7pVDjRdNqsoNU-27">
          <mxGeometry width="43" height="16" as="geometry">
            <mxRectangle width="43" height="16" as="alternateBounds" />
          </mxGeometry>
        </mxCell>
        <mxCell id="CIrGzN-7pVDjRdNqsoNU-29" value="" style="shape=partialRectangle;html=1;whiteSpace=wrap;connectable=0;fillColor=none;top=0;left=0;bottom=0;right=0;overflow=hidden;" vertex="1" parent="CIrGzN-7pVDjRdNqsoNU-27">
          <mxGeometry x="43" width="44" height="16" as="geometry">
            <mxRectangle width="44" height="16" as="alternateBounds" />
          </mxGeometry>
        </mxCell>
        <mxCell id="CIrGzN-7pVDjRdNqsoNU-30" value="" style="shape=partialRectangle;html=1;whiteSpace=wrap;connectable=0;fillColor=none;top=0;left=0;bottom=0;right=0;overflow=hidden;" vertex="1" parent="CIrGzN-7pVDjRdNqsoNU-27">
          <mxGeometry x="87" width="43" height="16" as="geometry">
            <mxRectangle width="43" height="16" as="alternateBounds" />
          </mxGeometry>
        </mxCell>
        <mxCell id="CIrGzN-7pVDjRdNqsoNU-31" value="" style="shape=tableRow;horizontal=0;startSize=0;swimlaneHead=0;swimlaneBody=0;top=0;left=0;bottom=0;right=0;collapsible=0;dropTarget=0;fillColor=none;points=[[0,0.5],[1,0.5]];portConstraint=eastwest;" vertex="1" parent="CIrGzN-7pVDjRdNqsoNU-22">
          <mxGeometry y="63" width="130" height="17" as="geometry" />
        </mxCell>
        <mxCell id="CIrGzN-7pVDjRdNqsoNU-32" value="" style="shape=partialRectangle;html=1;whiteSpace=wrap;connectable=0;fillColor=none;top=0;left=0;bottom=0;right=0;overflow=hidden;" vertex="1" parent="CIrGzN-7pVDjRdNqsoNU-31">
          <mxGeometry width="43" height="17" as="geometry">
            <mxRectangle width="43" height="17" as="alternateBounds" />
          </mxGeometry>
        </mxCell>
        <mxCell id="CIrGzN-7pVDjRdNqsoNU-33" value="" style="shape=partialRectangle;html=1;whiteSpace=wrap;connectable=0;fillColor=none;top=0;left=0;bottom=0;right=0;overflow=hidden;" vertex="1" parent="CIrGzN-7pVDjRdNqsoNU-31">
          <mxGeometry x="43" width="44" height="17" as="geometry">
            <mxRectangle width="44" height="17" as="alternateBounds" />
          </mxGeometry>
        </mxCell>
        <mxCell id="CIrGzN-7pVDjRdNqsoNU-34" value="" style="shape=partialRectangle;html=1;whiteSpace=wrap;connectable=0;fillColor=none;top=0;left=0;bottom=0;right=0;overflow=hidden;" vertex="1" parent="CIrGzN-7pVDjRdNqsoNU-31">
          <mxGeometry x="87" width="43" height="17" as="geometry">
            <mxRectangle width="43" height="17" as="alternateBounds" />
          </mxGeometry>
        </mxCell>
        <mxCell id="CIrGzN-7pVDjRdNqsoNU-36" value="&lt;b&gt;Access&lt;/b&gt;" style="text;html=1;align=center;verticalAlign=middle;resizable=0;points=[];autosize=1;strokeColor=none;fillColor=none;" vertex="1" parent="1">
          <mxGeometry x="175" y="350" width="60" height="20" as="geometry" />
        </mxCell>
        <mxCell id="CIrGzN-7pVDjRdNqsoNU-37" value="Physical Table 1" style="shape=table;startSize=30;container=1;collapsible=0;childLayout=tableLayout;fontStyle=1;align=center;" vertex="1" parent="1">
          <mxGeometry x="480" y="220" width="130" height="83" as="geometry" />
        </mxCell>
        <mxCell id="CIrGzN-7pVDjRdNqsoNU-38" value="" style="shape=tableRow;horizontal=0;startSize=0;swimlaneHead=0;swimlaneBody=0;top=0;left=0;bottom=0;right=0;collapsible=0;dropTarget=0;fillColor=none;points=[[0,0.5],[1,0.5]];portConstraint=eastwest;" vertex="1" parent="CIrGzN-7pVDjRdNqsoNU-37">
          <mxGeometry y="30" width="130" height="20" as="geometry" />
        </mxCell>
        <mxCell id="CIrGzN-7pVDjRdNqsoNU-39" value="" style="shape=partialRectangle;html=1;whiteSpace=wrap;connectable=0;fillColor=none;top=0;left=0;bottom=0;right=0;overflow=hidden;" vertex="1" parent="CIrGzN-7pVDjRdNqsoNU-38">
          <mxGeometry width="43" height="20" as="geometry">
            <mxRectangle width="43" height="20" as="alternateBounds" />
          </mxGeometry>
        </mxCell>
        <mxCell id="CIrGzN-7pVDjRdNqsoNU-40" value="" style="shape=partialRectangle;html=1;whiteSpace=wrap;connectable=0;fillColor=none;top=0;left=0;bottom=0;right=0;overflow=hidden;" vertex="1" parent="CIrGzN-7pVDjRdNqsoNU-38">
          <mxGeometry x="43" width="44" height="20" as="geometry">
            <mxRectangle width="44" height="20" as="alternateBounds" />
          </mxGeometry>
        </mxCell>
        <mxCell id="CIrGzN-7pVDjRdNqsoNU-41" value="" style="shape=partialRectangle;html=1;whiteSpace=wrap;connectable=0;fillColor=none;top=0;left=0;bottom=0;right=0;overflow=hidden;" vertex="1" parent="CIrGzN-7pVDjRdNqsoNU-38">
          <mxGeometry x="87" width="43" height="20" as="geometry">
            <mxRectangle width="43" height="20" as="alternateBounds" />
          </mxGeometry>
        </mxCell>
        <mxCell id="CIrGzN-7pVDjRdNqsoNU-42" value="" style="shape=tableRow;horizontal=0;startSize=0;swimlaneHead=0;swimlaneBody=0;top=0;left=0;bottom=0;right=0;collapsible=0;dropTarget=0;fillColor=none;points=[[0,0.5],[1,0.5]];portConstraint=eastwest;" vertex="1" parent="CIrGzN-7pVDjRdNqsoNU-37">
          <mxGeometry y="50" width="130" height="16" as="geometry" />
        </mxCell>
        <mxCell id="CIrGzN-7pVDjRdNqsoNU-43" value="" style="shape=partialRectangle;html=1;whiteSpace=wrap;connectable=0;fillColor=none;top=0;left=0;bottom=0;right=0;overflow=hidden;" vertex="1" parent="CIrGzN-7pVDjRdNqsoNU-42">
          <mxGeometry width="43" height="16" as="geometry">
            <mxRectangle width="43" height="16" as="alternateBounds" />
          </mxGeometry>
        </mxCell>
        <mxCell id="CIrGzN-7pVDjRdNqsoNU-44" value="" style="shape=partialRectangle;html=1;whiteSpace=wrap;connectable=0;fillColor=none;top=0;left=0;bottom=0;right=0;overflow=hidden;" vertex="1" parent="CIrGzN-7pVDjRdNqsoNU-42">
          <mxGeometry x="43" width="44" height="16" as="geometry">
            <mxRectangle width="44" height="16" as="alternateBounds" />
          </mxGeometry>
        </mxCell>
        <mxCell id="CIrGzN-7pVDjRdNqsoNU-45" value="" style="shape=partialRectangle;html=1;whiteSpace=wrap;connectable=0;fillColor=none;top=0;left=0;bottom=0;right=0;overflow=hidden;" vertex="1" parent="CIrGzN-7pVDjRdNqsoNU-42">
          <mxGeometry x="87" width="43" height="16" as="geometry">
            <mxRectangle width="43" height="16" as="alternateBounds" />
          </mxGeometry>
        </mxCell>
        <mxCell id="CIrGzN-7pVDjRdNqsoNU-46" value="" style="shape=tableRow;horizontal=0;startSize=0;swimlaneHead=0;swimlaneBody=0;top=0;left=0;bottom=0;right=0;collapsible=0;dropTarget=0;fillColor=none;points=[[0,0.5],[1,0.5]];portConstraint=eastwest;" vertex="1" parent="CIrGzN-7pVDjRdNqsoNU-37">
          <mxGeometry y="66" width="130" height="17" as="geometry" />
        </mxCell>
        <mxCell id="CIrGzN-7pVDjRdNqsoNU-47" value="" style="shape=partialRectangle;html=1;whiteSpace=wrap;connectable=0;fillColor=none;top=0;left=0;bottom=0;right=0;overflow=hidden;" vertex="1" parent="CIrGzN-7pVDjRdNqsoNU-46">
          <mxGeometry width="43" height="17" as="geometry">
            <mxRectangle width="43" height="17" as="alternateBounds" />
          </mxGeometry>
        </mxCell>
        <mxCell id="CIrGzN-7pVDjRdNqsoNU-48" value="" style="shape=partialRectangle;html=1;whiteSpace=wrap;connectable=0;fillColor=none;top=0;left=0;bottom=0;right=0;overflow=hidden;" vertex="1" parent="CIrGzN-7pVDjRdNqsoNU-46">
          <mxGeometry x="43" width="44" height="17" as="geometry">
            <mxRectangle width="44" height="17" as="alternateBounds" />
          </mxGeometry>
        </mxCell>
        <mxCell id="CIrGzN-7pVDjRdNqsoNU-49" value="" style="shape=partialRectangle;html=1;whiteSpace=wrap;connectable=0;fillColor=none;top=0;left=0;bottom=0;right=0;overflow=hidden;" vertex="1" parent="CIrGzN-7pVDjRdNqsoNU-46">
          <mxGeometry x="87" width="43" height="17" as="geometry">
            <mxRectangle width="43" height="17" as="alternateBounds" />
          </mxGeometry>
        </mxCell>
        <mxCell id="CIrGzN-7pVDjRdNqsoNU-50" value="Physical Table 2" style="shape=table;startSize=30;container=1;collapsible=0;childLayout=tableLayout;fontStyle=1;align=center;" vertex="1" parent="1">
          <mxGeometry x="480" y="320" width="130" height="80" as="geometry" />
        </mxCell>
        <mxCell id="CIrGzN-7pVDjRdNqsoNU-51" value="" style="shape=tableRow;horizontal=0;startSize=0;swimlaneHead=0;swimlaneBody=0;top=0;left=0;bottom=0;right=0;collapsible=0;dropTarget=0;fillColor=none;points=[[0,0.5],[1,0.5]];portConstraint=eastwest;" vertex="1" parent="CIrGzN-7pVDjRdNqsoNU-50">
          <mxGeometry y="30" width="130" height="17" as="geometry" />
        </mxCell>
        <mxCell id="CIrGzN-7pVDjRdNqsoNU-52" value="" style="shape=partialRectangle;html=1;whiteSpace=wrap;connectable=0;fillColor=none;top=0;left=0;bottom=0;right=0;overflow=hidden;" vertex="1" parent="CIrGzN-7pVDjRdNqsoNU-51">
          <mxGeometry width="43" height="17" as="geometry">
            <mxRectangle width="43" height="17" as="alternateBounds" />
          </mxGeometry>
        </mxCell>
        <mxCell id="CIrGzN-7pVDjRdNqsoNU-53" value="" style="shape=partialRectangle;html=1;whiteSpace=wrap;connectable=0;fillColor=none;top=0;left=0;bottom=0;right=0;overflow=hidden;" vertex="1" parent="CIrGzN-7pVDjRdNqsoNU-51">
          <mxGeometry x="43" width="44" height="17" as="geometry">
            <mxRectangle width="44" height="17" as="alternateBounds" />
          </mxGeometry>
        </mxCell>
        <mxCell id="CIrGzN-7pVDjRdNqsoNU-54" value="" style="shape=partialRectangle;html=1;whiteSpace=wrap;connectable=0;fillColor=none;top=0;left=0;bottom=0;right=0;overflow=hidden;" vertex="1" parent="CIrGzN-7pVDjRdNqsoNU-51">
          <mxGeometry x="87" width="43" height="17" as="geometry">
            <mxRectangle width="43" height="17" as="alternateBounds" />
          </mxGeometry>
        </mxCell>
        <mxCell id="CIrGzN-7pVDjRdNqsoNU-55" value="" style="shape=tableRow;horizontal=0;startSize=0;swimlaneHead=0;swimlaneBody=0;top=0;left=0;bottom=0;right=0;collapsible=0;dropTarget=0;fillColor=none;points=[[0,0.5],[1,0.5]];portConstraint=eastwest;" vertex="1" parent="CIrGzN-7pVDjRdNqsoNU-50">
          <mxGeometry y="47" width="130" height="16" as="geometry" />
        </mxCell>
        <mxCell id="CIrGzN-7pVDjRdNqsoNU-56" value="" style="shape=partialRectangle;html=1;whiteSpace=wrap;connectable=0;fillColor=none;top=0;left=0;bottom=0;right=0;overflow=hidden;" vertex="1" parent="CIrGzN-7pVDjRdNqsoNU-55">
          <mxGeometry width="43" height="16" as="geometry">
            <mxRectangle width="43" height="16" as="alternateBounds" />
          </mxGeometry>
        </mxCell>
        <mxCell id="CIrGzN-7pVDjRdNqsoNU-57" value="" style="shape=partialRectangle;html=1;whiteSpace=wrap;connectable=0;fillColor=none;top=0;left=0;bottom=0;right=0;overflow=hidden;" vertex="1" parent="CIrGzN-7pVDjRdNqsoNU-55">
          <mxGeometry x="43" width="44" height="16" as="geometry">
            <mxRectangle width="44" height="16" as="alternateBounds" />
          </mxGeometry>
        </mxCell>
        <mxCell id="CIrGzN-7pVDjRdNqsoNU-58" value="" style="shape=partialRectangle;html=1;whiteSpace=wrap;connectable=0;fillColor=none;top=0;left=0;bottom=0;right=0;overflow=hidden;" vertex="1" parent="CIrGzN-7pVDjRdNqsoNU-55">
          <mxGeometry x="87" width="43" height="16" as="geometry">
            <mxRectangle width="43" height="16" as="alternateBounds" />
          </mxGeometry>
        </mxCell>
        <mxCell id="CIrGzN-7pVDjRdNqsoNU-59" value="" style="shape=tableRow;horizontal=0;startSize=0;swimlaneHead=0;swimlaneBody=0;top=0;left=0;bottom=0;right=0;collapsible=0;dropTarget=0;fillColor=none;points=[[0,0.5],[1,0.5]];portConstraint=eastwest;" vertex="1" parent="CIrGzN-7pVDjRdNqsoNU-50">
          <mxGeometry y="63" width="130" height="17" as="geometry" />
        </mxCell>
        <mxCell id="CIrGzN-7pVDjRdNqsoNU-60" value="" style="shape=partialRectangle;html=1;whiteSpace=wrap;connectable=0;fillColor=none;top=0;left=0;bottom=0;right=0;overflow=hidden;" vertex="1" parent="CIrGzN-7pVDjRdNqsoNU-59">
          <mxGeometry width="43" height="17" as="geometry">
            <mxRectangle width="43" height="17" as="alternateBounds" />
          </mxGeometry>
        </mxCell>
        <mxCell id="CIrGzN-7pVDjRdNqsoNU-61" value="" style="shape=partialRectangle;html=1;whiteSpace=wrap;connectable=0;fillColor=none;top=0;left=0;bottom=0;right=0;overflow=hidden;" vertex="1" parent="CIrGzN-7pVDjRdNqsoNU-59">
          <mxGeometry x="43" width="44" height="17" as="geometry">
            <mxRectangle width="44" height="17" as="alternateBounds" />
          </mxGeometry>
        </mxCell>
        <mxCell id="CIrGzN-7pVDjRdNqsoNU-62" value="" style="shape=partialRectangle;html=1;whiteSpace=wrap;connectable=0;fillColor=none;top=0;left=0;bottom=0;right=0;overflow=hidden;" vertex="1" parent="CIrGzN-7pVDjRdNqsoNU-59">
          <mxGeometry x="87" width="43" height="17" as="geometry">
            <mxRectangle width="43" height="17" as="alternateBounds" />
          </mxGeometry>
        </mxCell>
        <mxCell id="CIrGzN-7pVDjRdNqsoNU-63" value="Physical Table 3" style="shape=table;startSize=30;container=1;collapsible=0;childLayout=tableLayout;fontStyle=1;align=center;" vertex="1" parent="1">
          <mxGeometry x="480" y="420" width="130" height="80" as="geometry" />
        </mxCell>
        <mxCell id="CIrGzN-7pVDjRdNqsoNU-64" value="" style="shape=tableRow;horizontal=0;startSize=0;swimlaneHead=0;swimlaneBody=0;top=0;left=0;bottom=0;right=0;collapsible=0;dropTarget=0;fillColor=none;points=[[0,0.5],[1,0.5]];portConstraint=eastwest;" vertex="1" parent="CIrGzN-7pVDjRdNqsoNU-63">
          <mxGeometry y="30" width="130" height="17" as="geometry" />
        </mxCell>
        <mxCell id="CIrGzN-7pVDjRdNqsoNU-65" value="" style="shape=partialRectangle;html=1;whiteSpace=wrap;connectable=0;fillColor=none;top=0;left=0;bottom=0;right=0;overflow=hidden;" vertex="1" parent="CIrGzN-7pVDjRdNqsoNU-64">
          <mxGeometry width="43" height="17" as="geometry">
            <mxRectangle width="43" height="17" as="alternateBounds" />
          </mxGeometry>
        </mxCell>
        <mxCell id="CIrGzN-7pVDjRdNqsoNU-66" value="" style="shape=partialRectangle;html=1;whiteSpace=wrap;connectable=0;fillColor=none;top=0;left=0;bottom=0;right=0;overflow=hidden;" vertex="1" parent="CIrGzN-7pVDjRdNqsoNU-64">
          <mxGeometry x="43" width="44" height="17" as="geometry">
            <mxRectangle width="44" height="17" as="alternateBounds" />
          </mxGeometry>
        </mxCell>
        <mxCell id="CIrGzN-7pVDjRdNqsoNU-67" value="" style="shape=partialRectangle;html=1;whiteSpace=wrap;connectable=0;fillColor=none;top=0;left=0;bottom=0;right=0;overflow=hidden;" vertex="1" parent="CIrGzN-7pVDjRdNqsoNU-64">
          <mxGeometry x="87" width="43" height="17" as="geometry">
            <mxRectangle width="43" height="17" as="alternateBounds" />
          </mxGeometry>
        </mxCell>
        <mxCell id="CIrGzN-7pVDjRdNqsoNU-68" value="" style="shape=tableRow;horizontal=0;startSize=0;swimlaneHead=0;swimlaneBody=0;top=0;left=0;bottom=0;right=0;collapsible=0;dropTarget=0;fillColor=none;points=[[0,0.5],[1,0.5]];portConstraint=eastwest;" vertex="1" parent="CIrGzN-7pVDjRdNqsoNU-63">
          <mxGeometry y="47" width="130" height="16" as="geometry" />
        </mxCell>
        <mxCell id="CIrGzN-7pVDjRdNqsoNU-69" value="" style="shape=partialRectangle;html=1;whiteSpace=wrap;connectable=0;fillColor=none;top=0;left=0;bottom=0;right=0;overflow=hidden;" vertex="1" parent="CIrGzN-7pVDjRdNqsoNU-68">
          <mxGeometry width="43" height="16" as="geometry">
            <mxRectangle width="43" height="16" as="alternateBounds" />
          </mxGeometry>
        </mxCell>
        <mxCell id="CIrGzN-7pVDjRdNqsoNU-70" value="" style="shape=partialRectangle;html=1;whiteSpace=wrap;connectable=0;fillColor=none;top=0;left=0;bottom=0;right=0;overflow=hidden;" vertex="1" parent="CIrGzN-7pVDjRdNqsoNU-68">
          <mxGeometry x="43" width="44" height="16" as="geometry">
            <mxRectangle width="44" height="16" as="alternateBounds" />
          </mxGeometry>
        </mxCell>
        <mxCell id="CIrGzN-7pVDjRdNqsoNU-71" value="" style="shape=partialRectangle;html=1;whiteSpace=wrap;connectable=0;fillColor=none;top=0;left=0;bottom=0;right=0;overflow=hidden;" vertex="1" parent="CIrGzN-7pVDjRdNqsoNU-68">
          <mxGeometry x="87" width="43" height="16" as="geometry">
            <mxRectangle width="43" height="16" as="alternateBounds" />
          </mxGeometry>
        </mxCell>
        <mxCell id="CIrGzN-7pVDjRdNqsoNU-72" value="" style="shape=tableRow;horizontal=0;startSize=0;swimlaneHead=0;swimlaneBody=0;top=0;left=0;bottom=0;right=0;collapsible=0;dropTarget=0;fillColor=none;points=[[0,0.5],[1,0.5]];portConstraint=eastwest;" vertex="1" parent="CIrGzN-7pVDjRdNqsoNU-63">
          <mxGeometry y="63" width="130" height="17" as="geometry" />
        </mxCell>
        <mxCell id="CIrGzN-7pVDjRdNqsoNU-73" value="" style="shape=partialRectangle;html=1;whiteSpace=wrap;connectable=0;fillColor=none;top=0;left=0;bottom=0;right=0;overflow=hidden;" vertex="1" parent="CIrGzN-7pVDjRdNqsoNU-72">
          <mxGeometry width="43" height="17" as="geometry">
            <mxRectangle width="43" height="17" as="alternateBounds" />
          </mxGeometry>
        </mxCell>
        <mxCell id="CIrGzN-7pVDjRdNqsoNU-74" value="" style="shape=partialRectangle;html=1;whiteSpace=wrap;connectable=0;fillColor=none;top=0;left=0;bottom=0;right=0;overflow=hidden;" vertex="1" parent="CIrGzN-7pVDjRdNqsoNU-72">
          <mxGeometry x="43" width="44" height="17" as="geometry">
            <mxRectangle width="44" height="17" as="alternateBounds" />
          </mxGeometry>
        </mxCell>
        <mxCell id="CIrGzN-7pVDjRdNqsoNU-75" value="" style="shape=partialRectangle;html=1;whiteSpace=wrap;connectable=0;fillColor=none;top=0;left=0;bottom=0;right=0;overflow=hidden;" vertex="1" parent="CIrGzN-7pVDjRdNqsoNU-72">
          <mxGeometry x="87" width="43" height="17" as="geometry">
            <mxRectangle width="43" height="17" as="alternateBounds" />
          </mxGeometry>
        </mxCell>
        <mxCell id="CIrGzN-7pVDjRdNqsoNU-76" style="rounded=0;orthogonalLoop=1;jettySize=auto;html=1;exitX=1;exitY=0.5;exitDx=0;exitDy=0;entryX=0;entryY=0.5;entryDx=0;entryDy=0;" edge="1" parent="1" source="CIrGzN-7pVDjRdNqsoNU-27" target="CIrGzN-7pVDjRdNqsoNU-42">
          <mxGeometry relative="1" as="geometry" />
        </mxCell>
        <mxCell id="CIrGzN-7pVDjRdNqsoNU-77" style="edgeStyle=none;rounded=0;orthogonalLoop=1;jettySize=auto;html=1;exitX=1;exitY=0.5;exitDx=0;exitDy=0;" edge="1" parent="1" source="CIrGzN-7pVDjRdNqsoNU-27" target="CIrGzN-7pVDjRdNqsoNU-55">
          <mxGeometry relative="1" as="geometry" />
        </mxCell>
        <mxCell id="CIrGzN-7pVDjRdNqsoNU-78" style="edgeStyle=none;rounded=0;orthogonalLoop=1;jettySize=auto;html=1;exitX=1;exitY=0.5;exitDx=0;exitDy=0;entryX=0;entryY=0.5;entryDx=0;entryDy=0;" edge="1" parent="1" source="CIrGzN-7pVDjRdNqsoNU-27" target="CIrGzN-7pVDjRdNqsoNU-68">
          <mxGeometry relative="1" as="geometry" />
        </mxCell>
        <mxCell id="CIrGzN-7pVDjRdNqsoNU-79" value="&lt;b&gt;Hash&lt;/b&gt;" style="text;html=1;align=center;verticalAlign=middle;resizable=0;points=[];autosize=1;strokeColor=none;fillColor=none;" vertex="1" parent="1">
          <mxGeometry x="420" y="356" width="40" height="20" as="geometry" />
        </mxCell>
        <mxCell id="CIrGzN-7pVDjRdNqsoNU-80" value="&lt;b&gt;Hash&lt;/b&gt;" style="text;html=1;align=center;verticalAlign=middle;resizable=0;points=[];autosize=1;strokeColor=none;fillColor=none;rotation=-50;" vertex="1" parent="1">
          <mxGeometry x="410" y="310" width="40" height="20" as="geometry" />
        </mxCell>
        <mxCell id="CIrGzN-7pVDjRdNqsoNU-81" value="&lt;b&gt;Hash&lt;/b&gt;" style="text;html=1;align=center;verticalAlign=middle;resizable=0;points=[];autosize=1;strokeColor=none;fillColor=none;rotation=50;" vertex="1" parent="1">
          <mxGeometry x="414" y="420" width="40" height="20" as="geometry" />
        </mxCell>
        <mxCell id="CIrGzN-7pVDjRdNqsoNU-82" value="&lt;div&gt;&lt;b&gt;Distributed database TDSQL&lt;/b&gt;&lt;/div&gt;" style="text;html=1;align=center;verticalAlign=middle;resizable=0;points=[];autosize=1;strokeColor=none;fillColor=none;" vertex="1" parent="1">
          <mxGeometry x="120" y="430" width="180" height="20" as="geometry" />
        </mxCell>
      </root>
    </mxGraphModel>
  </diagram>
</mxfile>
